<svg xmlns="http://www.w3.org/2000/svg" width="1179" height="153" viewBox="0 0 1179 153" fill="none">
  <path d="M874.754 120.602C881.178 120.602 886.385 115.301 886.385 108.761C886.385 102.221 881.178 96.9199 874.754 96.9199C868.33 96.9199 863.124 102.221 863.124 108.761C863.124 115.301 868.33 120.602 874.754 120.602Z" fill="#0C1E55"/>
  <path d="M205.639 117.492C200.435 115.311 195.844 112.195 192.477 108.144C188.804 104.093 186.049 99.4187 183.906 94.1211C181.764 88.8241 180.846 82.9037 180.846 76.6715C180.846 70.4393 181.764 64.5188 183.6 59.2212C185.437 53.9239 188.192 48.9381 191.865 45.1988C195.538 41.1479 199.823 38.0318 204.72 35.8506C209.924 33.6693 215.434 32.4229 221.862 32.4229C227.371 32.4229 231.962 33.0461 236.247 34.6041C240.533 36.1622 244.206 38.3434 247.573 40.8363C250.94 43.3291 253.389 46.7568 255.225 50.4962C257.368 54.2355 258.592 58.598 259.204 62.9605H237.778C237.166 59.2212 235.33 56.1051 232.575 53.6123C229.82 51.1194 226.453 49.8729 222.473 49.8729C215.74 49.8729 210.842 52.3658 207.475 57.04C204.108 61.7141 202.578 68.2577 202.578 76.3597C202.578 84.4617 204.108 90.6939 207.475 95.6792C210.536 100.665 215.74 102.847 222.473 102.847C227.065 102.847 230.738 101.6 233.493 99.4188C236.247 96.9261 238.084 93.4983 239.002 88.5124H260.429C260.122 92.8748 258.898 97.2372 257.062 100.977C255.225 104.716 252.776 108.144 249.409 111.26C246.349 114.065 242.369 116.557 238.084 118.115C233.493 119.673 228.595 120.608 223.086 120.608C216.658 120.92 210.842 119.673 205.639 117.492Z" fill="#0C1E55"/>
  <path d="M294.709 45.1948C297.77 40.8323 301.137 37.4045 304.81 35.2233C308.483 33.042 313.075 31.7956 318.89 31.7956C323.175 31.7956 327.155 32.7304 330.522 34.2884C333.889 35.8465 336.95 38.0278 339.398 40.8323C341.847 43.6367 343.684 47.0644 345.214 50.8037C346.745 54.543 347.357 58.9056 347.357 63.5797V118.423H325.318V66.6959C325.318 62.0217 324.094 58.2823 321.645 55.4779C319.197 52.6734 315.523 51.1153 310.932 51.1153C306.035 51.1153 302.055 52.985 298.994 56.4127C295.933 59.8404 294.097 64.5144 294.097 70.4348V118.423H272.059V0.946289H294.097V45.1948H294.709Z" fill="#0C1E55"/>
  <path d="M383.477 117.48C378.274 115.299 373.683 112.183 370.009 108.131C366.336 104.081 363.581 99.4066 361.745 93.7979C359.909 88.1885 358.99 82.5798 358.99 76.3476C358.99 70.1154 359.909 64.195 362.051 58.8975C364.194 53.6001 366.948 48.926 370.316 44.8751C373.988 40.8241 378.274 37.708 383.171 35.5268C388.069 33.3456 393.578 32.0991 399.7 32.0991C406.434 32.0991 412.25 33.3456 417.147 35.8384C422.35 38.3313 426.33 41.759 430.003 46.1215C433.37 50.484 436.124 56.093 437.961 62.0136C439.798 68.2456 440.716 75.1013 440.716 82.5798H380.723C381.64 89.1238 383.783 94.4207 387.15 98.1603C390.517 101.899 395.415 103.769 401.843 103.769C406.128 103.769 409.495 102.834 412.25 100.965C414.698 99.0949 416.841 96.6023 417.759 93.4862H439.492C438.879 97.2251 437.349 100.653 435.512 104.081C433.37 107.509 430.921 110.313 427.86 112.806C424.799 115.299 420.82 117.48 416.535 118.726C412.25 120.284 407.352 120.908 402.149 120.908C395.108 120.908 388.987 119.661 383.477 117.48ZM386.844 53.9117C383.783 57.0278 381.947 61.7019 380.723 66.9993H417.453C417.147 61.7019 415.311 57.3394 412.25 53.9117C409.189 50.484 404.904 48.926 400.006 48.926C394.19 49.2376 389.905 50.7957 386.844 53.9117Z" fill="#0C1E55"/>
  <path d="M473.465 117.492C468.262 115.311 463.671 112.195 460.304 108.144C456.631 104.093 453.875 99.4187 451.733 94.1211C449.59 88.8241 448.672 82.9037 448.672 76.6715C448.672 70.4393 449.59 64.5188 451.427 59.2212C453.264 53.9239 456.018 48.9381 459.691 45.1988C463.364 41.1479 467.65 38.0318 472.547 35.8506C477.751 33.6693 483.26 32.4229 489.688 32.4229C495.198 32.4229 499.789 33.0461 504.074 34.6041C508.359 36.1622 512.033 38.3434 515.4 40.8363C518.766 43.3291 521.216 46.7568 523.052 50.4962C525.194 54.2355 526.419 58.598 527.031 62.9605H505.605C504.992 59.2212 503.156 56.1051 500.401 53.6123C497.646 51.1194 494.28 49.8729 490.3 49.8729C483.567 49.8729 478.669 52.3658 475.302 57.04C471.935 61.7141 470.404 68.2577 470.404 76.3597C470.404 84.4617 471.935 90.6939 475.302 95.6792C478.363 100.665 483.567 102.847 490.3 102.847C494.892 102.847 498.565 101.6 501.32 99.4188C504.074 96.9261 505.911 93.4983 506.829 88.5124H527.949C527.643 92.8748 526.419 97.2372 524.582 100.977C522.746 104.716 520.297 108.144 516.93 111.26C513.869 114.065 509.89 116.557 505.605 118.115C501.013 119.673 496.116 120.608 490.606 120.608C484.485 120.92 478.669 119.673 473.465 117.492Z" fill="#0C1E55"/>
  <path d="M561.929 90.0666V118.423H540.197V0.946289H561.929V66.0724L591.314 34.2884H617.637L587.029 66.3841L621.31 118.423H594.681L571.418 80.0949L561.929 90.0666Z" fill="#0C1E55"/>
  <path d="M645.487 117.492C640.286 115.311 635.695 112.195 631.715 108.144C628.043 104.093 624.982 99.4187 622.839 94.1211C620.696 88.8241 619.778 82.9037 619.778 76.6715C619.778 70.4393 620.696 64.5188 622.839 59.2212C624.982 53.9239 628.043 48.9381 631.715 45.1988C635.389 41.1479 639.98 38.0318 645.487 35.8506C650.693 33.6693 656.506 32.4229 662.936 32.4229C669.366 32.4229 675.178 33.6693 680.385 35.8506C685.585 38.0318 690.18 41.1479 694.157 45.1988C697.828 49.2497 700.893 53.9239 703.035 59.2212C705.176 64.5188 706.094 70.4393 706.094 76.6715C706.094 82.9037 705.176 88.8241 703.035 94.1211C700.893 99.4187 697.828 104.405 694.157 108.144C690.486 112.195 685.891 115.311 680.385 117.492C675.178 119.673 669.366 120.92 662.936 120.92C656.506 120.92 650.693 119.673 645.487 117.492ZM678.55 96.3026C682.22 91.3168 684.056 84.7735 684.056 76.3597C684.056 67.946 682.22 61.4025 678.55 56.4168C674.872 51.431 669.672 48.6265 662.936 48.6265C656.2 48.6265 650.999 51.1194 647.328 56.4168C643.651 61.4025 641.816 68.2577 641.816 76.3597C641.816 84.4617 643.651 91.3168 647.328 96.3026C650.999 101.289 656.2 103.781 662.936 103.781C669.672 103.781 674.872 101.289 678.55 96.3026Z" fill="#0C1E55"/>
  <path d="M770.371 108.453H769.76C767.006 112.193 763.641 115.309 760.27 117.49C756.599 119.671 752.011 120.606 746.192 120.606C737.009 120.606 729.967 117.802 724.766 112.504C719.865 106.895 717.418 99.7286 717.418 90.3803V34.2905H739.15V86.6407C739.15 91.6266 740.374 95.3662 742.521 97.8588C744.663 100.351 748.334 101.909 752.928 101.909C758.129 101.909 762.112 100.04 765.171 96.6125C768.23 93.1846 769.76 88.5105 769.76 82.9018V34.2905H791.797V118.425H770.677V108.453H770.371Z" fill="#0C1E55"/>
  <path d="M812.917 34.2812V7.79443H834.343V34.2812H848.428V48.9268H834.343V93.4868C834.343 96.6029 834.955 98.7844 836.491 100.031C838.02 101.277 839.856 101.901 842.609 101.901H846.898C847.51 101.901 848.428 101.901 849.039 101.589V118.416C847.816 118.416 846.898 118.727 845.362 118.727C844.138 118.727 842.609 119.039 841.079 119.039H835.261C832.508 119.039 830.061 118.727 827.308 118.104C824.548 117.481 822.407 116.546 820.265 114.988C818.124 113.43 816.289 111.249 815.065 108.756C813.835 106.263 812.917 102.835 812.917 98.7844V48.9268H801.593V34.2812H812.917Z" fill="#0C1E55"/>
  <path d="M918.212 117.169C913.623 114.988 909.64 111.872 906.275 107.821C902.91 103.77 900.456 99.0956 898.927 93.7986C897.397 88.5009 896.48 82.5805 896.48 76.0365C896.48 69.4926 897.397 63.8839 898.927 58.275C900.762 52.9776 903.216 47.9918 906.275 44.2525C909.64 40.2016 913.623 37.0855 918.212 34.9043C922.8 32.723 928.313 31.4766 934.437 31.4766C943.614 31.4766 951.268 33.9694 957.087 38.6436C962.899 43.3177 966.576 50.1731 968.106 58.8981H958.31C957.087 52.666 954.633 47.6802 950.35 44.5641C946.374 41.448 941.167 39.89 934.743 39.89C929.842 39.89 925.866 40.8248 922.188 42.6945C918.823 44.5641 915.764 47.057 913.623 50.4847C911.475 53.6008 909.64 57.6517 908.722 62.0142C907.499 66.3765 907.193 71.0507 907.193 76.0365C907.193 81.0224 907.804 85.6966 909.028 90.059C910.252 94.4214 911.781 98.161 914.235 101.589C916.376 105.016 919.435 107.509 922.8 109.379C926.171 111.248 930.454 112.183 935.049 112.183C942.085 112.183 947.903 110.002 952.186 105.951C956.475 101.9 958.922 96.2912 959.84 89.4355H969.329C968.412 99.0956 965.04 106.574 958.922 112.495C953.104 118.104 945.15 120.908 935.049 120.908C928.313 120.597 922.8 119.35 918.212 117.169Z" fill="#0C1E55"/>
  <path d="M999.939 117.169C995.038 114.988 991.061 111.872 987.696 107.821C984.325 103.77 981.878 99.0956 980.042 93.7986C978.207 88.5009 977.289 82.5805 977.289 76.0365C977.289 69.4926 978.207 63.8839 980.042 58.275C981.878 52.9776 984.325 47.9918 987.696 44.2525C991.061 40.2016 995.038 37.0855 999.939 34.9043C1004.83 32.723 1010.04 31.4766 1016.16 31.4766C1022.28 31.4766 1027.48 32.723 1032.38 34.9043C1036.97 37.0855 1041.26 40.2016 1044.63 44.2525C1047.99 48.3034 1050.44 52.9776 1052.28 58.275C1054.12 63.5723 1054.73 69.4926 1054.73 76.0365C1054.73 82.5805 1053.81 88.1892 1052.28 93.7986C1050.44 99.0956 1047.99 104.081 1044.63 107.821C1041.26 111.872 1037.28 114.988 1032.38 117.169C1027.79 119.35 1022.28 120.597 1016.16 120.597C1010.35 120.597 1004.83 119.35 999.939 117.169ZM1028.41 109.379C1032.08 107.509 1034.83 105.016 1037.28 101.589C1039.73 98.161 1041.57 94.4214 1042.48 90.059C1043.71 85.6966 1044.32 81.0224 1044.32 76.0365C1044.32 71.0507 1043.71 66.3765 1042.48 62.0142C1041.26 57.6517 1039.43 53.9124 1037.28 50.4847C1034.83 47.057 1032.08 44.5641 1028.41 42.6945C1024.73 40.8248 1020.75 39.89 1016.16 39.89C1011.57 39.89 1007.28 40.8248 1003.92 42.6945C1000.55 44.5641 997.491 47.057 995.038 50.4847C992.591 53.9124 990.755 57.6517 989.532 62.0142C988.308 66.3765 987.696 71.0507 987.696 76.0365C987.696 81.0224 988.308 85.6966 989.532 90.059C990.755 94.4214 992.591 98.161 995.038 101.589C997.491 105.016 1000.55 107.509 1003.92 109.379C1007.28 111.248 1011.57 112.183 1016.16 112.183C1020.75 112.183 1025.04 111.248 1028.41 109.379Z" fill="#0C1E55"/>
  <path d="M1078.91 33.359V46.135H1079.22C1081.97 41.7725 1085.34 38.3448 1089.32 35.5403C1093.3 32.7358 1098.5 31.4894 1104.62 31.4894C1109.83 31.4894 1114.42 32.7358 1118.4 35.2287C1122.38 37.7215 1125.13 41.7725 1126.96 46.7582H1127.28C1130.03 41.7725 1133.7 38.0332 1138.3 35.2287C1142.88 32.4242 1148.09 31.1777 1153.9 31.1777C1157.57 31.1777 1160.64 31.801 1163.7 33.0474C1166.76 34.2938 1169.52 35.8519 1171.66 38.0332C1173.8 40.2144 1175.64 43.0189 1176.86 46.4466C1178.08 49.8743 1178.69 53.6136 1178.69 57.6645V118.428H1168.9V58.911C1168.9 52.6788 1167.37 48.0047 1164 44.8886C1160.64 41.7725 1156.35 40.526 1151.46 40.526C1148.4 40.526 1145.33 41.1493 1142.88 42.0841C1140.13 43.3305 1137.68 44.8886 1135.84 46.7582C1134.01 48.6279 1132.17 51.4323 1130.95 54.2368C1129.72 57.3529 1129.11 60.469 1129.11 64.2084V118.428H1119.01V58.911C1119.01 52.6788 1117.48 48.0047 1114.11 44.8886C1111.05 41.7725 1107.07 40.526 1102.17 40.526C1099.11 40.526 1096.36 41.1493 1093.6 42.3957C1090.85 43.6421 1088.4 45.2002 1085.95 47.3815C1083.81 49.5627 1081.97 52.0555 1080.75 55.1716C1079.52 57.9761 1078.91 61.4038 1078.91 64.8312V118.428H1068.81V33.359H1078.91Z" fill="#0C1E55"/>
  <path d="M98.2018 76.6555L137.381 6.85542C138.299 5.29735 138.299 3.73931 137.381 2.18126C136.463 0.934824 134.932 0 133.402 0H52.5942C51.0638 0 49.5334 0.934824 48.6151 2.18126L6.98701 74.1629C6.06872 75.721 6.06872 77.5908 6.98701 78.8371L48.6151 150.818C49.5334 152.377 51.0638 153 52.5942 153H133.402C134.932 153 136.463 152.065 137.381 150.818C138.299 149.26 138.299 147.702 137.381 146.144L98.2018 76.6555ZM92.9982 67.3072L60.5526 9.3483H125.75L92.9982 67.3072ZM52.2881 14.0224L87.4882 76.6555L52.2881 139.289L16.1696 76.6555L52.2881 14.0224ZM60.5526 143.652L92.9982 85.6928L125.444 143.652H60.5526Z" fill="#0C1E55"/>
</svg>